# xmcd CD database file
#
# Track frame offsets:
#	150
#	30107
#	52423
#	85548
#	117587
#	142628
#	169658
#	188604
#	216151
#	242920
#	269556
#	292081
#	314781
#
# Disc length: 4577 seconds
#
# Revision: 0
# Processed by: cddbd v1.5.1PL2 Copyright (c) Steve Scherf et al.
# Submitted via: CDex 1.51
#
DISCID=c011df0d
DTITLE=Tran Manh Tuan - Ao Anh
DYEAR=1996
DGENRE=Jazz
TTITLE0=Mot coi di ve
TTITLE1=Ao anh
TTITLE2=Bien nho
TTITLE3=Biet Ly
TTITLE4=Ngay mai em di
TTITLE5=Niem khuc cuoi
TTITLE6=Rong reu
TTITLE7=Thu quyen ru
TTITLE8=Tinh khuc chieu mua
TTITLE9=Tinh nho
TTITLE10=Trai tim con trinh
TTITLE11=Tuyet roi
TTITLE12=Xot Xa
EXTD=YEAR: 1996
EXTT0=
EXTT1=
EXTT2=
EXTT3=
EXTT4=
EXTT5=
EXTT6=
EXTT7=
EXTT8=
EXTT9=
EXTT10=
EXTT11=
EXTT12=
PLAYORDER=
